<svg xmlns="http://www.w3.org/2000/svg" viewBox="0 0 52.352 52">
    <defs>
        <style>
            .cls-1{fill:#fc3}
        </style>
    </defs>
    <g id="icon" transform="translate(0 -.087)">
        <path id="Path_34" d="M52.1 27.822l-3.086-4.867 1.83-5.462a1.651 1.651 0 0 0-.741-1.954l-4.997-2.879-.918-5.688a1.658 1.658 0 0 0-1.566-1.387l-5.759-.225L33.408.748a1.648 1.648 0 0 0-2.029-.5l-5.2 2.474L20.972.246a1.656 1.656 0 0 0-2.029.5l-3.456 4.613-5.759.225A1.652 1.652 0 0 0 8.164 6.97l-.918 5.688-4.993 2.878a1.652 1.652 0 0 0-.743 1.954l1.83 5.462-3.084 4.87A1.653 1.653 0 0 0 .51 29.9l4.158 3.988-.468 5.738a1.653 1.653 0 0 0 1.186 1.723l5.535 1.595 2.253 5.3a1.645 1.645 0 0 0 1.851.973l5.647-1.158 4.457 3.65a1.651 1.651 0 0 0 2.092 0l4.457-3.65 5.647 1.158a1.648 1.648 0 0 0 1.851-.973l2.253-5.3 5.535-1.595a1.652 1.652 0 0 0 1.186-1.723l-.467-5.741 4.16-3.985a1.653 1.653 0 0 0 .257-2.078zm-13.986-7.945L26.554 37.2a2.272 2.272 0 0 1-1.786 1.079 2.893 2.893 0 0 1-1.9-.855L14.384 28.8a1.527 1.527 0 0 1 0-2.133l2.094-2.133a1.476 1.476 0 0 1 2.094 0l5.528 5.608 9.1-13.647a1.47 1.47 0 0 1 2.06-.4l2.456 1.688a1.526 1.526 0 0 1 .398 2.094z" class="cls-1" data-name="Path 34"/>
    </g>
</svg>
